#!OML:ASF H:\Terrain\Patient Classification 1\Walking\liu\liu.ASF
:FULLY-SPECIFIED
:DEGREES
485
root 21.761200 34.573399 63.227600 8.625280 8.597260 9.325300
lowerback -16.595181 -9.652620 -10.816840
upperback 4.969140 -11.919220 2.894740
thorax 16.020821 -6.426720 7.255100
lowerneck -47.999802 -5.138620 -19.483360
upperneck 46.518200 -5.857360 20.706600
head 23.841200 -1.661198 10.122500
rclavicle 0.000000 0.000000
rhumerus -90.576599 17.329220 -171.028793
rradius 75.268997
rwrist -39.589199
rhand -65.236397 -44.062599
rfingers 14.250040
rthumb -11.691240 -103.861198
lclavicle 0.000000 0.000000
lhumerus -11.446800 -43.491001 165.148407
lradius 65.847603
lwrist 17.351721
lhand -34.165199 -51.597401
lfingers 14.250040
lthumb 18.311199 7.965040
rfemur -80.207397 17.663361 20.187401
rtibia 59.740398
rfoot -44.512600 -13.251500
rtoes -31.475401
lfemur 23.477400 4.823800 -59.113201
ltibia 0.000000
lfoot -27.523199 9.036500
ltoes 5.160540
486
root 21.747400 34.550201 63.513000 8.789600 8.562020 9.012080
lowerback -16.666861 -9.536480 -10.277120
upperback 4.800380 -11.817300 2.850440
thorax 15.801940 -6.341440 6.929620
lowerneck -47.825001 -4.647940 -18.937080
upperneck 46.977200 -5.406840 20.679199
head 23.919001 -1.418938 10.111860
rclavicle 0.000000 -0.000000
rhumerus -90.881203 16.535139 -170.692795
rradius 74.660004
rwrist -39.293999
rhand -62.405602 -47.052399
rfingers 14.250040
rthumb -8.958020 -106.917603
lclavicle 0.000000 -0.000000
lhumerus -12.260840 -44.597599 165.598801
lradius 66.538002
lwrist 17.214920
lhand -33.982601 -51.882999
lfingers 14.250040
lthumb 18.487520 7.671720
rfemur -81.466202 19.425940 19.626381
rtibia 58.716599
rfoot -45.859001 -13.889700
rtoes -32.976601
lfemur 24.331800 4.819780 -58.599201
ltibia 0.000000
lfoot -28.300200 9.062380
ltoes 5.780880
487
root 21.736799 34.516800 63.812599 8.845020 8.465860 9.697420
lowerback -13.078440 -9.470420 -10.479900
upperback 1.732848 -11.911860 2.694180
thorax 10.498500 -6.237960 7.293280
lowerneck -45.491001 -4.752260 -19.193220
upperneck 48.874199 -5.633020 20.079201
head 24.217199 -1.689790 9.937060
rclavicle 0.000000 -0.000000
rhumerus -96.746399 16.938860 -171.117996
rradius 75.008003
rwrist -39.493599
rhand -62.147598 -46.697800
rfingers 14.250040
rthumb -8.708820 -106.568199
lclavicle 0.000000 -0.000000
lhumerus -18.763880 -45.582802 168.492401
lradius 67.301201
lwrist 15.012980
lhand -36.349998 -52.446602
lfingers 14.250040
lthumb 16.202801 7.202860
rfemur -82.264801 21.163200 17.891100
rtibia 57.567001
rfoot -47.458599 -14.224700
rtoes -32.923801
lfemur 25.468000 4.847120 -59.207600
ltibia 0.000000
lfoot -29.147200 9.243140
ltoes 3.958460
488
root 21.714001 34.471802 64.084801 9.155140 8.363500 10.458280
lowerback -11.065960 -9.475460 -10.988680
upperback -0.111787 -12.008320 2.480540
thorax 7.473220 -6.192660 7.596840
lowerneck -43.339199 -4.352860 -19.385180
upperneck 49.327400 -5.258440 20.191601
head 23.922800 -1.576954 10.068600
rclavicle -0.000000 0.000000
rhumerus -100.077003 17.074619 -171.504593
rradius 74.737000
rwrist -39.464802
rhand -62.594200 -45.097401
rfingers 14.250040
rthumb -9.140040 -104.958801
lclavicle -0.000000 0.000000
lhumerus -22.278400 -45.080002 169.910995
lradius 68.702003
lwrist 16.208920
lhand -33.494400 -52.465000
lfingers 14.250040
lthumb 18.958521 7.068560
rfemur -83.396004 23.035000 15.837560
rtibia 56.326401
rfoot -48.670601 -14.822880
rtoes -32.496799
lfemur 26.244200 4.824720 -59.859600
ltibia -0.000000
lfoot -29.622999 9.579480
ltoes 2.905460
489
root 21.682800 34.429798 64.370796 9.790860 8.256320 9.738660
lowerback -10.545160 -9.531500 -10.059020
upperback -1.270056 -12.188240 2.570760
thorax 5.908160 -6.209680 7.261300
lowerneck -42.772598 -4.154840 -18.441441
upperneck 50.265400 -5.213820 19.462021
head 24.143801 -1.579978 9.661180
rclavicle 0.000000 -0.000000
rhumerus -102.038002 17.250080 -172.031998
rradius 74.309402
rwrist -39.383999
rhand -62.629601 -45.259399
rfingers 14.250040
rthumb -9.174280 -105.120003
lclavicle 0.000000 -0.000000
lhumerus -24.730801 -45.262001 170.589401
lradius 69.484596
lwrist 16.170160
lhand -32.816399 -52.729801
lfingers 14.250040
lthumb 19.612740 6.773540
rfemur -84.899002 24.978600 15.450620
rtibia 55.236801
rfoot -50.110001 -15.855080
rtoes -30.316999
lfemur 26.675400 4.834920 -58.954800
ltibia 0.000000
lfoot -29.903601 10.169700
ltoes 0.108798
490
root 21.658199 34.395000 64.686401 10.173900 8.449860 8.204840
lowerback -10.951620 -9.622520 -8.326520
upperback -1.598000 -12.405260 2.919840
thorax 5.672620 -6.288700 6.627380
lowerneck -42.462399 -3.923500 -17.928699
upperneck 50.300598 -5.052220 19.317820
head 24.066401 -1.482686 9.539320
rclavicle -0.000000 -0.000000
rhumerus -102.839600 16.781139 -171.990402
rradius 74.099403
rwrist -38.848598
rhand -61.730400 -46.504799
rfingers 14.250040
rthumb -8.305860 -106.383400
lclavicle -0.000000 -0.000000
lhumerus -26.309799 -47.119400 171.300400
lradius 69.532402
lwrist 14.029500
lhand -36.689201 -53.105999
lfingers 14.250040
lthumb 15.875440 6.555900
rfemur -85.718399 26.210199 16.506741
rtibia 54.521801
rfoot -52.726799 -15.608440
rtoes -20.920401
lfemur 27.487000 4.649020 -57.138599
ltibia -0.000000
lfoot -30.611200 10.383660
ltoes -1.634948
491
root 21.639400 34.350800 64.980003 10.154280 8.736060 8.399500
lowerback -10.943440 -9.732720 -8.434820
upperback -1.494476 -12.542740 2.833440
thorax 5.789820 -6.361660 6.579720
lowerneck -43.543400 -4.159860 -17.409639
upperneck 51.008202 -5.341180 18.677420
head 24.578400 -1.627278 9.195380
rclavicle -0.000000 -0.000000
rhumerus -102.778801 15.767460 -171.400406
rradius 73.707802
rwrist -37.839199
rhand -60.245201 -47.852001
rfingers 14.250040
rthumb -6.871660 -107.756203
lclavicle -0.000000 -0.000000
lhumerus -26.505199 -47.160599 171.530594
lradius 70.390602
lwrist 16.076420
lhand -34.402401 -52.835201
lfingers 14.250040
lthumb 18.082420 6.737260
rfemur -86.057800 26.044201 16.324120
rtibia 54.179001
rfoot -56.263401 -11.110240
rtoes 7.930980
lfemur 28.647800 4.311720 -57.056599
ltibia -0.000000
lfoot -31.439800 9.533640
ltoes 1.472328
492
root 21.580400 34.308998 65.304001 9.873360 9.826040 9.712880
lowerback -11.252220 -10.229600 -10.150380
upperback -0.866724 -13.065400 2.424440
thorax 6.806420 -6.671980 6.984400
lowerneck -43.761002 -4.428060 -18.399240
upperneck 50.371799 -5.782460 20.256399
head 24.465599 -1.707386 9.890600
rclavicle -0.000000 0.000000
rhumerus -102.169998 15.223480 -171.306396
rradius 73.041199
rwrist -37.424000
rhand -58.960602 -47.726398
rfingers 14.250040
rthumb -5.631100 -107.648804
lclavicle -0.000000 0.000000
lhumerus -26.628201 -48.295200 171.533401
lradius 70.596199
lwrist 14.988520
lhand -35.055599 -52.841801
lfingers 14.250040
lthumb 17.452160 6.757500
rfemur -85.965202 27.752600 13.790780
rtibia 54.185001
rfoot -59.290600 -13.840120
rtoes 10.573260
lfemur 30.228399 3.128080 -57.934200
ltibia -0.000000
lfoot -31.818600 9.033140
ltoes 3.184720
493
root 21.538401 34.250401 65.614403 9.529440 9.893160 10.752020
lowerback -11.736320 -10.454160 -11.475840
upperback -0.020675 -13.224820 2.106560
thorax 8.090220 -6.815300 7.272960
lowerneck -45.092800 -4.747380 -19.760180
upperneck 50.749599 -6.265400 22.295401
head 25.006399 -1.765204 10.898400
rclavicle 0.000000 0.000000
rhumerus -101.172401 15.145380 -171.342194
rradius 72.049202
rwrist -37.417999
rhand -57.971001 -46.365601
rfingers 14.250040
rthumb -4.675400 -106.299400
lclavicle 0.000000 0.000000
lhumerus -26.586599 -48.671799 171.535797
lradius 70.465401
lwrist 12.881780
lhand -29.228800 -52.559799
lfingers 14.250040
lthumb 23.073200 6.765100
rfemur -85.797798 28.091000 12.826320
rtibia 54.396801
rfoot -59.010399 -17.027340
rtoes 2.100980
lfemur 31.813601 3.000400 -58.740799
ltibia 0.000000
lfoot -32.079399 9.066080
ltoes 5.502400
494
root 21.496201 34.191799 65.911598 9.306480 9.594160 11.034920
lowerback -12.263280 -10.460420 -12.089460
upperback 0.813330 -13.140840 2.097240
thorax 9.320940 -6.833400 7.515080
lowerneck -45.388401 -5.074520 -19.642380
upperneck 49.610802 -6.544740 21.900000
head 24.644199 -1.914258 10.617440
rclavicle 0.000000 0.000000
rhumerus -99.864998 14.644620 -170.886002
rradius 70.918999
rwrist -37.121399
rhand -58.193199 -45.510399
rfingers 14.250040
rthumb -4.890100 -105.441803
lclavicle 0.000000 0.000000
lhumerus -25.546200 -46.758801 171.295395
lradius 71.576401
lwrist 16.233999
lhand -31.475201 -52.418201
lfingers 14.250040
lthumb 20.906401 7.021960
rfemur -85.542000 27.209801 13.615880
rtibia 54.452801
rfoot -58.357800 -17.342979
rtoes -1.355192
lfemur 33.128399 3.246860 -58.730202
ltibia -0.000000
lfoot -32.177601 9.000620
ltoes 1.995494
